<?xml version="1.0"?><svg version="1.2" baseProfile="tiny-ps" viewBox="0 0 300 300" xmlns="http://www.w3.org/2000/svg" xmlns:xlink="http://www.w3.org/1999/xlink"><title>yeahunter logo</title><g><g fill="#fefefe" transform="matrix(.1 0 0 -.1 0 300)"><path d="M0 1500V0h3000v3000H0V1500z"/></g><g fill="#e0dfdf" transform="matrix(.1 0 0 -.1 0 300)"><path d="m1484 2876-20-15-12-53c-7-29-19-96-28-148-8-52-17-97-20-99-2-2-39 18-81 44-43 27-98 60-123 74-25 13-59 35-76 48-60 44-63 36-52-121l8-120 20-80 21-80 35-70 34-70-12-11c-7-6-56-37-108-67-104-61-206-139-258-196l-33-37-15-54-16-53 13-47c6-25 20-63 31-83 23-48 23-64-5-116-41-77-84-114-277-238-85-54-175-135-196-176l-14-27v-86l18-32c9-17 29-53 44-80 32-58 64-89 143-135 66-39 260-137 315-159l35-14h240l123 59 124 58 7-8c5-5 16-38 26-74 20-76 47-131 123-255l56-90 86-86 85-87 52-26 52-26h50l11 20 11 21-33 67-33 67 1 65v66l23 46 22 47 35 31c49 43 117 75 247 117 102 32 178 66 247 108 14 8 52 25 85 37l60 21 56 57 57 56 41 82c22 44 50 114 61 154l21 73 5 95 6 95 21 40 22 40v220l-18 53-19 52-39 50c-21 27-39 52-39 54 0 3 16 13 36 22l36 17 10 23 11 23-6 15-6 15-23 5c-13 3-36 8-52 11l-29 6 21 22 21 22h-62c-34 0-74 3-88 7l-27 8-78 75-79 75-90 57c-49 31-118 69-151 84l-62 28-51 65c-28 35-109 120-180 187l-128 124-94 56c-52 31-107 60-124 63l-30 6-21-14z"/></g><g fill="#b5b2b2" transform="matrix(.1 0 0 -.1 0 300)"><path d="M1464 2845c-8-20-21-82-29-139s-19-116-25-131l-10-27-33 21c-17 12-79 51-137 86-58 36-115 73-127 81l-23 16-7-18-7-18 12-136 11-135 27-80c28-86 58-150 74-160 5-3 10-10 10-15 0-4-58-43-128-85l-129-76-67-61-66-60-26-45-27-44 6-62 5-62 21-45c11-25 21-56 21-70v-26l-32-54-33-54-81-60c-45-34-114-81-155-106l-74-45-58-59c-108-109-105-168 10-302l60-69 79-47c109-63 248-132 313-153l54-18h154l54 18c30 10 88 35 129 55 41 21 85 41 96 44l22 7 21-73c28-97 81-201 144-285 72-95 194-221 246-255l45-28h57l5 14 5 14-25 50c-14 28-28 68-32 90l-6 39 11 55 12 56 29 46 30 46 59 38 59 39 146 47 145 48 70 43c38 24 93 51 122 60l53 18 54 51 54 51 44 90c24 49 51 119 60 155l17 65 1 100 1 100 22 28 22 28 7 46 7 46-6 71-6 71-16 48-17 48-50 54-50 54 6 10c3 5 18 12 33 16 33 8 63 33 63 51v13l-37 10c-21 6-47 11-58 11l-20 1 31 28 32 29-72 4-71 5-35 18c-19 10-69 48-110 85-147 131-232 187-331 219l-36 12-31 42c-87 118-377 383-472 432l-29 15h-72l-15-35zm256-305v-40h-8c-5 0-17 7-28 15-10 8-22 15-26 15h-7l5-67c3-38 7-82 9-100l4-32-25 10c-14 5-32 9-41 9h-15l36-40 36-40v-20c0-24-7-25-53-5-20 8-46 15-57 15h-20l-20-20-19-19-7 34-6 34 20 88c11 48 31 129 46 178l26 90v45l1 45 74-77 75-78v-40zm-336-537c-13-31-55-205-51-210 3-2 29 9 58 26 30 16 78 36 108 45l55 16h131l83-20c138-33 211-79 252-160l22-43 5-51 5-51-20-50c-10-27-24-51-29-52l-10-4-24 35-24 36-46 25c-26 14-56 25-68 25h-21v-10c0-5 6-13 13-17s23-21 35-37l22-29-6-36c-4-20-12-47-19-60l-12-24-5 46-6 47-27 35c-30 40-128 109-145 103l-11-3 32-43c17-23 40-65 50-92l19-50v-105l-21-45c-11-25-30-53-42-63-60-48-207-145-245-162l-43-18-34-38-35-39-11-45-11-45h-73l-42-19c-22-11-65-35-95-53l-53-34-73-12-73-12-66 10-67 11-47 26c-26 14-84 54-129 90l-81 64-9 24-10 25h-41l3 17 3 16 29 10 29 10 12-17 13-17 47 26c26 14 54 30 62 37l14 11-3 26-3 26-46 23-47 23-71 6-71 6 11 14c7 7 53 40 103 73 50 32 115 76 145 97l54 38 49 67c27 37 69 85 94 107l45 40-12 60-12 61 27 54 27 55 60 56 61 56 59 29 59 30 52 9c29 5 75 9 102 10l48 1-8-17zm-355-298-27-15-11-31-11-32v-113l-49-97c-45-89-53-121-20-81 20 24 98 61 169 79 161 42 200 65 255 150 19 30 46 61 60 71 14 9 25 20 25 24v8l-37-5-38-5-96 31-96 31h-49l-49-1-26-14zm179-91 22-6v-37l-31-36-31-35h-86l-26 31-26 31v48h9c5 0 11-13 14-29l6-30 21-11 21-11 20 6 19 6-5 10-6 9h31v60h13c6 0 22-3 35-6z"/></g><g fill="#706c6f" transform="matrix(.1 0 0 -.1 0 300)"><path d="m1475 2856-16-24-20-120c-10-66-23-131-28-145l-10-25-80 51c-187 121-230 147-240 147h-10l5-97c10-188 39-307 98-405l34-57-66-37c-99-54-189-114-260-173l-62-52-30-52-30-52v-86l25-59c30-72 31-101 4-157l-20-42-54-49c-30-27-100-78-156-113l-103-63-63-60c-97-90-111-131-74-211l18-40 67-60c37-33 84-70 104-83 83-51 245-134 308-158l68-25 81-1 82-1 39 13c21 7 85 35 142 62l103 50 14-6 15-5v-28c0-41 52-183 88-242 52-84 146-192 227-261 86-72 111-89 139-90h18l-5 23c-3 12-13 47-22 77l-16 55 6 50c3 27 15 71 27 97l20 47 50 46 49 47 62 28c34 15 102 40 152 55 101 31 161 59 255 119 36 24 84 48 106 54l41 12 45 48 45 48 36 75c19 41 44 104 53 140l18 64-1 136-2 137 19-5 18-5 12 23 13 22-5 91-5 91-21 48-21 48-51 57c-27 31-50 61-50 67v12l40 12c21 6 42 16 45 21l6 10-23 9c-13 5-35 12-50 15-28 6-39 26-15 26 6 0 26 11 42 25l30 24-65 1h-65l-51 24-52 24-93 87c-52 47-121 104-154 126l-60 40-67 20-67 21-59 71c-33 40-102 115-153 168-159 163-274 249-333 249h-26l-15-24zm242-271c40-53 78-124 71-131-2-1-29 13-61 32s-63 34-69 34h-10l7-17c3-10 15-45 26-78 12-32 27-72 35-87l15-28h-10c-6 0-34 9-62 20-28 12-54 18-57 15s9-19 26-36l31-31 25-51c13-29 23-54 21-55-2-2-16 8-32 23-38 36-79 56-114 57l-29 1-20-18-20-18-6 17c-4 10-4 45-1 79l5 62 36 125c20 68 40 151 43 183l6 58 50-48c27-26 69-75 94-108zm-272-573 40-7-35-22c-20-12-46-33-59-47l-24-25-18-53c-9-29-15-56-13-59 2-4 29 8 60 26l56 34 49 10c28 6 85 11 128 11h78l75-19c91-23 158-56 215-105l41-36 26-52 26-52v-142l-34-70-34-71-13-5-14-5v122l-24 33c-28 40-84 77-131 87l-34 7 37-43 37-43v-61l-25-54-25-54-63-61c-35-34-118-101-184-149l-122-87-30-37-30-36-21-58-22-58-46 6-47 5-55-21c-30-11-79-36-108-56l-54-35-70-11-71-11-65 7-66 7-140 71-141 72-3 42-3 41-25 6-25 7 3 22 3 22 39 3 39 3 8-12 7-12 56 28 55 28 6 15c3 8 3 23 0 32l-5 17-38 16c-55 24-112 37-160 37h-43l6 10c3 5 70 52 148 103l143 94 43 49c24 27 54 68 68 92l25 43-4 44-5 43 31-19c17-10 36-19 42-19h10l-10 59-9 59 18 48 18 48 62 61 62 60 60 33c33 17 78 36 99 41 47 11 174 13 229 3zm-400-306c-17-7-36-20-42-28l-13-15-5-83-5-84-26-44-26-44 11-11 11-11 28 21 29 21 49 7c27 3 79 15 116 26l68 19 37 39c21 20 59 61 85 89l47 52h-89l-87 30-86 30h-36c-20-1-50-7-66-14zm148-57 27-12 7-25 6-25-9-26-9-25-35-24-35-24-35 6-35 5-22 26-23 26v32c0 18 3 42 6 54l6 22 17 5c25 7 104-1 134-15zm-117-2-17-13-1-31-1-32 13-16c17-21 47-19 71 4l21 19-7 32-7 31-25 10c-30 11-26 11-47-4z"/></g><g fill="#333" transform="matrix(.1 0 0 -.1 0 300)"><path d="m1476 2858-15-24-11-74c-12-91-40-220-47-220-6 0-113 67-236 148l-81 52-7-7-7-8 8-120 9-120 20-75c19-76 58-168 86-206l16-22-132-78-132-79-73-68-72-68-21-42-21-43v-64l26-63 25-62 1-32v-32l-28-51-28-52-69-54c-37-29-96-70-130-90-137-83-228-169-247-233l-8-30 8-35c4-19 17-48 30-65l22-31 61-42c88-59 372-203 436-222l55-16h112l52 15c29 9 94 36 145 61l92 45 19-3 20-3 17-81 17-80 30-65 29-64 60-80c33-44 84-103 115-131l55-50 56-29c31-16 58-27 62-24 3 3-2 22-10 42l-15 36v107l15 52 16 51 32 43 32 43 61 41 60 40 144 48 145 47 55 32 55 31 88 85 88 85 18-11 19-12 20 22c32 35 72 123 93 205l19 75v162l-10 35-10 35 6 41c3 22 10 47 14 54l8 14 17-14 17-14 9 15c12 19 11 43-5 119l-14 65-39 69c-21 37-52 85-70 106l-32 37 12 13 12 12-11 5c-6 2-20 10-30 18l-19 14 23 1c26 0 78 21 104 41l18 14-68 3-67 3-50 23-51 23-101 94-100 94-57 34-57 34-67 18-67 19-13 17c-110 152-312 358-418 428l-54 36-34 6-34 5-16-24zm171-189c38-39 76-83 86-97 26-38 69-123 65-128-2-2-33 15-69 36-35 22-67 40-70 40-7 0 44-147 66-190l16-30h-10c-5 0-30 9-56 20s-52 20-58 20h-11l26-27c23-25 88-142 88-159 0-4-20 12-45 35-49 46-81 61-125 61h-29l-14-20-14-20-6 7c-4 3-7 36-7 73v67l36 119 35 119 6 73 6 72h8c5 0 39-32 76-71zm-168-659 26-7-35-15-35-15-37-41-37-41-12-40c-7-23-10-44-7-47s27 8 52 25l47 29 52 13 52 13h85l85-1 65-17c36-9 94-30 129-48l65-31 42-44 43-44 21-57 22-57-5-60-4-60-31-60c-16-33-39-68-51-79l-20-19 6 51 6 50-22 45-22 45-37 26-37 26-35 6-35 6 16-13c9-8 23-25 33-39l16-24v-72l-25-51-26-51-72-69c-40-37-110-95-157-128-93-65-175-138-192-169-6-11-19-43-28-70l-18-49-64 2-63 2-70-36c-39-21-88-47-110-58l-39-21-92-4-92-4-63 21c-35 12-113 48-174 80l-110 58 3 41 3 42h-39l-13 16-13 16 23 19c29 23 59 24 83 2l18-16 18 15c9 9 27 19 38 22 12 4 29 15 38 25l16 18-6 17-6 17-37 18c-20 10-62 24-95 31l-59 12-30-6-30-6 19 22c10 11 77 59 148 105l128 85 44 45c25 25 56 65 70 90l26 44-4 54-5 54 26-18c14-10 34-21 44-24l19-7-8 42c-5 24-8 58-7 76l2 33 25 43 26 44 62 56 62 57 61 30 61 30 64 8 65 9 64-5c36-3 76-9 90-13zm-909-909c24-10 46-23 48-29l3-11-39-19-38-18-22 9-21 9-35-6-36-7-13-26-14-26-26 34c-58 78-35 108 83 108h65l45-18zm465 597c-11-6-26-18-32-26l-13-16v-141l-25-47c-23-43-32-78-20-78 2 0 20 11 39 24l34 23 59 7c32 3 81 14 108 23l50 16 86 89 86 88h-97l-72 25-71 25h-56l-56-1-20-11zm155-43c16-8 34-24 40-35l10-20-6-25-6-25-34-30-35-30h-29c-42 0-74 17-93 50-21 35-21 62-2 100l16 30h110l29-15zm-118-17c-15-15-16-53-2-79l11-19h49v31l10-6 10-6v67l-12 12c-7 7-21 12-33 12s-26-5-33-12z"/></g><g fill="#090809" transform="matrix(.1 0 0 -.1 0 300)"><path d="m1482 2855-20-25-7-57c-7-61-41-233-47-238-3-4-39 19-246 153-41 26-76 46-79 44-3-1-5-39-4-85l2-82 20-99c22-111 57-203 94-251l24-33-110-63-111-64-81-65-82-65-32-49-33-48v-113l19-41c10-23 22-56 26-73l7-32-27-54-26-54-47-42c-26-23-99-75-162-117-134-87-156-104-210-167l-40-46v-90l14-27c19-36 58-71 129-116 86-54 265-142 327-160l54-16h60c80 0 121 12 243 71 105 52 155 66 196 55l24-6 6-62c18-182 83-306 244-470l66-67 53-28c29-15 56-25 59-21 3 3-5 22-19 42s-30 53-37 73l-11 36 4 72 5 71 24 48 24 49 40 34c51 44 130 84 225 112 216 64 317 129 417 265 23 33 43 56 43 50 0-14-68-114-103-151-39-42-29-42 36 0 96 62 155 143 209 288l31 84 5 100 4 100-16 65c-9 36-25 82-35 103l-18 37h8c12 0 68-88 75-117 10-40 20-25 33 47l13 69-11 71-11 71-24 47-24 47-44 42c-23 22-58 50-76 61l-32 19 64 6 65 6 33 18 33 17-62 7-62 8-44 19-43 19-80 74c-152 142-224 188-335 213l-46 11-61 80c-113 151-341 365-425 400-48 20-52 19-75-10zm80-23c154-89 440-402 494-540l14-37-5 52-5 52 37-11c21-5 63-22 93-37l54-26 101-94c115-108 151-133 226-162l54-20-90 5-90 5-60 15c-32 9-68 16-78 16h-18l6-9c3-5 31-17 63-26 31-9 91-33 132-53l75-37 51-50 50-50 18-50 17-50 5-75 6-75-21 25c-11 14-21 28-21 31 0 4-25 23-55 44l-54 38-52 13c-29 8-54 12-57 10-2-3 19-16 47-31l52-26 30-46c16-26 39-72 51-103l22-55-1-105v-105l-21-73c-26-91-62-168-97-207l-26-30 10 22c6 12 16 44 21 71l11 49-10 63c-6 35-15 68-21 74l-11 11 6-61 7-62-33-63-34-64-85-86-85-87-60-29c-33-17-91-41-130-53-124-40-179-61-228-88l-49-26-49-54-49-53-15-51-15-52v-65l1-66 13-37c8-21 10-38 7-38-13 0-176 174-208 220-72 106-113 222-113 318v50l19 61 19 62 27 35 27 36 136 100c75 56 157 123 184 151l48 50 25 50 25 51v118l16-13c8-7 25-31 36-53l20-40-5-44-5-44-22-30-22-30 23 7c38 12 112 73 141 116l27 40 12 57 12 57-11 58c-6 32-21 78-34 103l-22 46-37 33c-20 18-56 44-80 58l-44 26-93 26-93 27-117-4-117-3-57-27-58-27 14 27c18 34 51 65 93 86l32 16h38l38 1-27 23-27 24-51 11-51 11h-174l-50-14c-27-7-73-25-102-39l-52-27-64-59-63-60-28-51-28-52v-102l-25 29c-13 17-31 43-40 60l-16 30 1 33 1 34 21 33c42 68 148 149 338 259 74 43 156 93 182 112l49 35 11-38 12-38 29-35 29-35-26 75-26 75-1 75-1 75 21 80c12 44 31 139 43 210 12 72 24 133 27 138 7 11 15 9 65-21zm-180-310 16-13-14-52c-8-29-14-76-14-105v-54l-22-19c-13-11-42-33-66-50l-43-31-13 5-13 5-33 79c-18 43-39 101-47 128-14 51-43 241-43 280v22l139-91c76-50 145-97 153-104zm83-506 50-13-30-12c-16-7-45-24-63-37l-32-25-19-37c-10-20-21-50-25-66l-7-29 23 16c43 31 113 59 173 69l60 10 79-7 79-7 66-20c36-11 89-33 117-49l52-29 37-41c20-22 45-61 56-86l19-45v-129l-33-72-34-72-28-19-28-18 7 18c4 11 10 31 13 46l5 26-12 36c-6 20-23 50-37 67-25 29-90 69-113 69h-12l26-31 26-31v-103l-41-62-40-62-62-54c-34-29-109-87-167-129s-115-87-126-99c-27-30-59-94-69-136l-6-33-57 6-57 6-42-16c-23-8-68-31-99-51l-57-37-66-14c-84-18-113-17-186 1l-60 15-133 67-134 68 6 38 6 38-30 10-30 11v37l19 11c11 5 33 10 49 10h30l5-14 6-15 55 30 56 31v45l-22 11c-13 7-43 19-67 27l-44 15H400v8c0 13 65 62 182 136l108 68 50 55c28 31 60 74 72 96l20 41-6 54-6 54 31-26c17-14 36-26 43-26h12l-10 58-9 58 23 47 23 47 49 50c27 28 74 67 105 87l56 35 61 18 61 18h150l50-12zm-914-902c30-9 61-22 69-30l14-14-10-10c-6-6-27-19-47-29l-37-19-6 9-5 9h-75l-18-13-18-13 4-24 3-25 26-12 26-13-5-25c-2-14-7-25-11-25-17 0-92 64-110 94l-21 33v31c0 17 3 38 6 47l7 17 31 14 31 13 46 1h45l55-16zm975 1681 17-26-6-67-6-67-36-125c-20-69-39-151-42-182l-6-58 17-42 16-43 36-40 35-40-16 33-16 33 3 27 3 27 18 3c10 2 30 1 44-3l25-6 48-45 48-45 39-6 38-6-26 34c-33 44-82 130-77 134 2 2 27-7 56-20l52-24v13c0 6-13 32-28 57-30 46-68 137-61 144 3 2 29-11 59-30s56-33 57-31c1 1-2 31-8 66l-10 65-22 35c-36 59-99 128-179 195-42 36-80 65-83 65s2-11 11-25zm110-107c77-80 116-131 145-190l23-48-7-6-6-6-61 37c-34 20-63 35-66 32s2-19 10-36c9-16 16-36 16-43s13-41 30-75c16-35 28-63 27-63-2 0-71 25-122 45l-20 8 31-34c32-34 99-157 91-165-2-3-27 16-54 40-51 46-89 66-124 66h-19l-21-21-21-21-9 13c-5 8-9 34-9 59v45l19 70c11 39 31 113 45 165l26 95v95h8c4 0 35-28 68-62zm-596-991c-13-7-30-24-37-37l-13-25v-126l-26-50c-14-28-23-53-20-56s20 4 39 16l34 21 73 10 73 10 42 19 43 19 43 48c24 26 58 62 75 80l31 33h-46l-46-1-77 26-77 26h-86l-25-13zm146-36 42-19 7-31 7-31-19-33-19-32-37-18-37-19-35 12-35 11-20 29-20 28v31c0 39 18 79 39 84 9 3 32 5 51 6l35 1 41-19zm-102-19c-6-4-15-17-18-30l-8-23 16-24 16-25h30v30h30v49l-16 15c-17 17-33 20-50 8z"/></g></g></svg>